<svg width="13" height="14" viewBox="0 0 13 14" fill="none" xmlns="http://www.w3.org/2000/svg">
<path d="M12.6293 11.8454L9.8728 9.08886C10.5365 8.20537 10.8947 7.12998 10.8935 6.025C10.8935 3.20254 8.59721 0.90625 5.77475 0.90625C2.95229 0.90625 0.656006 3.20254 0.656006 6.025C0.656006 8.84746 2.95229 11.1437 5.77475 11.1437C6.87974 11.145 7.95513 10.7867 8.83862 10.123L11.5952 12.8796C11.7347 13.0043 11.9167 13.0709 12.1038 13.0657C12.2909 13.0604 12.4688 12.9838 12.6012 12.8514C12.7335 12.7191 12.8102 12.5411 12.8154 12.354C12.8207 12.1669 12.7541 11.9849 12.6293 11.8454ZM2.11851 6.025C2.11851 5.30186 2.33294 4.59496 2.73469 3.9937C3.13645 3.39243 3.70748 2.9238 4.37557 2.64706C5.04366 2.37033 5.77881 2.29793 6.48805 2.439C7.1973 2.58008 7.84878 2.9283 8.36011 3.43964C8.87145 3.95098 9.21967 4.60246 9.36075 5.3117C9.50183 6.02094 9.42942 6.75609 9.15269 7.42418C8.87595 8.09228 8.40732 8.6633 7.80606 9.06506C7.20479 9.46681 6.49789 9.68125 5.77475 9.68125C4.80541 9.68008 3.87611 9.2945 3.19068 8.60907C2.50525 7.92364 2.11967 6.99434 2.11851 6.025Z" fill="#2D3748"/>
</svg>
