<svg xmlns="http://www.w3.org/2000/svg" width="16" height="14" fill="none" viewBox="0 0 16 14"><path fill="#F5F5F5" d="M14.615 4.855v-.736h.621c.13 0 .235-.105.235-.234v-.646a.234.234 0 0 0-.155-.22L8.08.407a.234.234 0 0 0-.16 0L.684 3.019a.234.234 0 0 0-.155.22v.646c0 .13.105.234.235.234h.62v.736c0 .13.106.234.235.234h.7l-.25 6.185h-.45a.234.234 0 0 0-.234.235v.715H.764a.234.234 0 0 0-.235.235v.914c0 .13.105.234.235.234h14.472c.13 0 .235-.105.235-.234v-.914a.234.234 0 0 0-.235-.235h-.62v-.715a.234.234 0 0 0-.235-.235h-.45l-.25-6.185h.7c.13 0 .234-.105.234-.234Zm-.469 6.888v.481H1.854v-.481h12.292ZM5.244 9l-.092 2.274h-.471L4.43 5.09h.973l-.085 2.095A2.854 2.854 0 0 0 5.244 9ZM8 5.802c1.323 0 2.4 1.076 2.4 2.4 0 1.323-1.077 2.4-2.4 2.4a2.403 2.403 0 0 1-2.4-2.4c0-1.324 1.077-2.4 2.4-2.4Zm-.486-.713h.972l-.011.283a2.875 2.875 0 0 0-.95 0l-.011-.283Zm.73 5.97-.008.215h-.472l-.008-.214a2.866 2.866 0 0 0 .488 0Zm2.438-3.875-.085-2.095h.973l-.25 6.185h-.472L10.756 9a2.861 2.861 0 0 0-.074-1.816Zm3.464-2.563H1.854v-.502h12.292v.502ZM8 10.45a2.251 2.251 0 0 0 2.248-2.25A2.251 2.251 0 0 0 8 5.953a2.25 2.25 0 0 0-2.248 2.248A2.251 2.251 0 0 0 8 10.45Zm-.234-3.294v-.152a.234.234 0 0 1 .468 0v.142a.658.658 0 0 1 .381.254.234.234 0 0 1-.38.275.186.186 0 0 0-.15-.078h-.132a.185.185 0 0 0 0 .37h.094a.654.654 0 0 1 .187 1.28V9.4a.234.234 0 0 1-.468 0v-.142a.658.658 0 0 1-.381-.254.234.234 0 0 1 .38-.275.186.186 0 0 0 .15.078h.132a.185.185 0 0 0 0-.37h-.094a.654.654 0 0 1-.187-1.28Z"/></svg>