<svg xmlns="http://www.w3.org/2000/svg" width="20" height="20" fill="none" viewBox="0 0 20 20"><path fill="#CAC9C9" d="m17.19 13.332-.19-.231c-.86-1.04-1.38-1.667-1.38-4.61 0-1.523-.364-2.773-1.082-3.71-.53-.693-1.246-1.218-2.19-1.607a.117.117 0 0 1-.032-.026C11.976 2.011 11.048 1.25 10 1.25c-1.048 0-1.976.761-2.316 1.897a.122.122 0 0 1-.031.025C5.45 4.08 4.38 5.818 4.38 8.49c0 2.944-.519 3.571-1.38 4.61l-.19.231a1.374 1.374 0 0 0-.182 1.47c.241.508.755.823 1.341.823h12.066c.584 0 1.094-.315 1.336-.82a1.375 1.375 0 0 0-.18-1.472ZM10 18.75a3.128 3.128 0 0 0 2.751-1.646.157.157 0 0 0-.138-.229H7.387a.156.156 0 0 0-.138.23 3.128 3.128 0 0 0 2.75 1.645Z"/></svg>