<svg xmlns="http://www.w3.org/2000/svg" width="35" height="35" fill="none" viewBox="0 0 35 35"><path fill="#000" d="M17.5 0C7.85 0 0 7.85 0 17.5S7.85 35 17.5 35 35 27.15 35 17.5 27.15 0 17.5 0Zm0 28.27c-1.758 0-3.157-.746-3.344-2.321a.337.337 0 0 1 .336-.372h6.012a.338.338 0 0 1 .336.377c-.214 1.545-1.6 2.315-3.34 2.315Zm8.245-4.04H9.255c-.996 0-1.515-1.261-.942-1.934 1.374-1.627 2.345-2.311 2.345-6.798 0-4.112 2.166-5.571 3.955-6.283a.955.955 0 0 0 .532-.562c.31-1.03 1.189-1.922 2.355-1.922s2.043.892 2.356 1.923a.96.96 0 0 0 .533.562c1.785.71 3.954 2.172 3.954 6.282 0 4.487.97 5.171 2.345 6.799.567.672.047 1.934-.943 1.934Z"/></svg>