<svg xmlns="http://www.w3.org/2000/svg" width="37" height="37" fill="none" viewBox="0 0 37 37"><g fill="#000" clip-path="url(#a)"><path d="M35.943 8.963a3.038 3.038 0 0 0-3.035-3.036c-.86 0-1.636.36-2.189.936L18.875.024a.722.722 0 0 0-.723 0L6.307 6.863a3.025 3.025 0 0 0-2.188-.936 3.038 3.038 0 0 0-3.035 3.036 3.04 3.04 0 0 0 2.312 2.947v13.672c0 .258.138.497.362.626l11.84 6.836a3.039 3.039 0 0 0 2.914 3.883 3.039 3.039 0 0 0 2.914-3.882l11.843-6.837a.723.723 0 0 0 .361-.626V11.91a3.04 3.04 0 0 0 2.313-2.947Zm-33.414 0c0-.877.713-1.59 1.59-1.59.877 0 1.59.713 1.59 1.59 0 .876-.713 1.59-1.59 1.59-.877 0-1.59-.714-1.59-1.59Zm15.983 26.52c-.876 0-1.59-.714-1.59-1.59 0-.877.714-1.59 1.59-1.59.877 0 1.59.713 1.59 1.59 0 .876-.713 1.59-1.59 1.59Zm2.19-3.689a3.026 3.026 0 0 0-4.379 0l-11.481-6.63V11.91a3.04 3.04 0 0 0 2.19-3.797l11.481-6.628 11.482 6.628a3.04 3.04 0 0 0 2.19 3.797v13.255l-11.483 6.63Zm12.206-21.242c-.877 0-1.59-.713-1.59-1.59 0-.876.713-1.59 1.59-1.59.877 0 1.59.714 1.59 1.59 0 .877-.713 1.59-1.59 1.59Z"/><path d="m28.414 11.138-9.54-5.507a.722.722 0 0 0-.722 0l-9.539 5.507a.723.723 0 0 0-.361.626v11.015c0 .258.138.496.361.625l9.54 5.508a.722.722 0 0 0 .722 0l9.539-5.508a.723.723 0 0 0 .361-.625V11.764a.723.723 0 0 0-.361-.626Zm-9.9-4.047 8.093 4.673-8.094 4.673-8.093-4.673 8.093-4.673Zm.722 19.943v-3.259a.723.723 0 1 0-1.445 0v3.26L9.697 22.36v-9.345l8.455 4.881a.722.722 0 0 0 .723 0l8.455-4.881v9.345l-8.094 4.673Z"/><path d="M18.513 19.8a.729.729 0 0 0-.512.212.728.728 0 0 0-.212.511c0 .19.077.377.212.511a.73.73 0 0 0 .512.212.727.727 0 0 0 .722-.723.727.727 0 0 0-.723-.723Z"/></g><defs><clipPath id="a"><path fill="#fff" d="M0 0h37v37H0z"/></clipPath></defs></svg>