<svg xmlns="http://www.w3.org/2000/svg" width="41" height="42" fill="none" viewBox="0 0 41 42"><path fill="#F5F5F5" d="M10.683 28.212c7.636 2.98 14.133 3.56 21.497-1.078-.054.081-1.51 2.239-5.341 3.345.809 1.106 1.915 2.373 1.915 2.373 2.455 0 4.855-.7 6.932-2.05 1.619-1.079 2.536-2.94 2.347-4.882a36.063 36.063 0 0 0-2.32-9.656 11.323 11.323 0 0 0-9.522-7.256c-.377-.027-.647-.027-.809-.027l-.431.431c4.936 1.403 7.39 3.588 7.444 3.669a27.196 27.196 0 0 0-24.168-.162s2.428-2.4 7.795-3.669l-.323-.323c-.567 0-1.106.054-1.673.135a11.37 11.37 0 0 0-8.712 7.148c-1.241 3.236-2.05 6.635-2.347 10.088-.162 1.834.701 3.641 2.212 4.693a12.3 12.3 0 0 0 6.77 2.023s.971-1.268 1.942-2.4c-3.641-1.08-5.125-3.237-5.152-3.318l.686.35c.41.21.83.399 1.258.566Zm4.233-2.346c-1.753-.054-3.129-1.537-3.075-3.318a3.184 3.184 0 0 1 3.075-3.075c1.754.054 3.13 1.538 3.075 3.318-.08 1.673-1.402 3.021-3.075 3.075Zm11.006 0c-1.754-.054-3.13-1.537-3.075-3.318a3.183 3.183 0 0 1 3.075-3.075c1.753.054 3.129 1.538 3.075 3.318a3.183 3.183 0 0 1-3.075 3.075Z"/></svg>