<svg xmlns="http://www.w3.org/2000/svg" width="37" height="25" fill="none" viewBox="0 0 37 25"><path fill="#000" d="M8.684 19.728c7.635 2.98 14.133 3.56 21.496-1.078-.054.08-1.51 2.239-5.34 3.344.808 1.106 1.914 2.374 1.914 2.374a12.7 12.7 0 0 0 6.933-2.05c1.618-1.079 2.535-2.94 2.346-4.882a36.063 36.063 0 0 0-2.32-9.657 11.323 11.323 0 0 0-9.52-7.256c-.378-.027-.647-.027-.81-.027l-.43.432c4.935 1.403 7.39 3.587 7.444 3.668a27.196 27.196 0 0 0-24.169-.161S8.655 2.034 14.023.766l-.324-.324c-.566 0-1.106.054-1.672.135a11.37 11.37 0 0 0-8.713 7.148c-1.24 3.237-2.05 6.636-2.346 10.088-.162 1.835.7 3.642 2.211 4.694a12.3 12.3 0 0 0 6.77 2.023s.972-1.268 1.943-2.4c-3.642-1.08-5.125-3.239-5.152-3.32l.685.35c.41.21.83.4 1.259.567Zm4.233-2.346c-1.753-.054-3.129-1.538-3.075-3.318a3.183 3.183 0 0 1 3.075-3.075c1.753.054 3.129 1.538 3.075 3.318-.081 1.672-1.403 3.021-3.075 3.075Zm11.005 0c-1.753-.054-3.129-1.538-3.075-3.318a3.183 3.183 0 0 1 3.075-3.075c1.753.054 3.13 1.538 3.075 3.318a3.183 3.183 0 0 1-3.075 3.075Z"/></svg>