<svg xmlns="http://www.w3.org/2000/svg" width="29" height="29" fill="none" viewBox="0 0 29 29"><path fill="#000" d="M23.507 12.573a.85.85 0 0 0-.85.85v12.461c0 .781-.635 1.416-1.416 1.416H3.115c-.78 0-1.416-.635-1.416-1.416V7.76c0-.78.636-1.416 1.416-1.416h12.462a.85.85 0 0 0 0-1.7H3.115A3.119 3.119 0 0 0 0 7.76v18.125A3.119 3.119 0 0 0 3.115 29h18.126a3.119 3.119 0 0 0 3.115-3.116v-12.46a.85.85 0 0 0-.85-.85Z"/><path fill="#000" d="M28.42 2.182 26.82.58a1.985 1.985 0 0 0-2.804 0L11.198 13.396a.85.85 0 0 0-.232.435l-.801 4.005a.85.85 0 0 0 1 1l4.005-.801a.85.85 0 0 0 .434-.233L28.421 4.985a1.985 1.985 0 0 0 0-2.803ZM14.585 16.419l-2.503.5.5-2.503L23.015 3.984l2.002 2.003-10.431 10.432ZM27.22 3.784l-1.001 1.001-2.003-2.002 1.002-1.002c.11-.11.29-.11.4 0l1.602 1.602c.11.11.11.29 0 .4Z"/></svg>