<svg xmlns="http://www.w3.org/2000/svg" width="518" height="112" fill="none" viewBox="0 0 518 112"><path fill="#0DBD8B" fill-rule="evenodd" d="M56 112c30.928 0 56-25.072 56-56S86.928 0 56 0 0 25.072 0 56s25.072 56 56 56Z" clip-rule="evenodd"/><path fill="#fff" fill-rule="evenodd" d="M45.761 26.093A4.097 4.097 0 0 1 49.864 22C65.215 22 77.66 34.42 77.66 49.74a4.097 4.097 0 0 1-4.101 4.093 4.097 4.097 0 0 1-4.102-4.092c0-10.8-8.773-19.555-19.595-19.555a4.097 4.097 0 0 1-4.102-4.093Z" clip-rule="evenodd"/><path fill="#fff" fill-rule="evenodd" d="M85.899 45.648a4.097 4.097 0 0 1 4.1 4.093c0 15.32-12.445 27.74-27.797 27.74a4.097 4.097 0 0 1-4.102-4.093 4.097 4.097 0 0 1 4.102-4.093c10.822 0 19.595-8.755 19.595-19.554a4.097 4.097 0 0 1 4.102-4.093Z" clip-rule="evenodd"/><path fill="#fff" fill-rule="evenodd" d="M66.303 85.907A4.097 4.097 0 0 1 62.202 90c-15.353 0-27.798-12.42-27.798-27.74a4.097 4.097 0 0 1 4.1-4.093 4.097 4.097 0 0 1 4.102 4.092c0 10.8 8.773 19.555 19.596 19.555a4.097 4.097 0 0 1 4.101 4.093Z" clip-rule="evenodd"/><path fill="#fff" fill-rule="evenodd" d="M26.101 66.352a4.097 4.097 0 0 1-4.1-4.093C22 46.94 34.445 34.52 49.797 34.52a4.097 4.097 0 0 1 4.102 4.093 4.097 4.097 0 0 1-4.102 4.093c-10.822 0-19.595 8.755-19.595 19.554a4.097 4.097 0 0 1-4.102 4.093Z" clip-rule="evenodd"/><path fill="#000" d="M197 63.5h-39.5c.467 4.133 1.967 7.433 4.5 9.9 2.533 2.4 5.867 3.6 10 3.6 2.733 0 5.2-.667 7.4-2s3.767-3.133 4.7-5.4h12c-1.6 5.267-4.6 9.533-9 12.8-4.333 3.2-9.467 4.8-15.4 4.8-7.733 0-14-2.567-18.8-7.7-4.733-5.133-7.1-11.633-7.1-19.5 0-7.667 2.4-14.1 7.2-19.3 4.8-5.2 11-7.8 18.6-7.8 7.6 0 13.733 2.567 18.4 7.7 4.733 5.067 7.1 11.467 7.1 19.2l-.1 3.7Zm-25.4-20.9c-3.733 0-6.833 1.1-9.3 3.3-2.467 2.2-4 5.133-4.6 8.8h27.6c-.533-3.667-2-6.6-4.4-8.8-2.4-2.2-5.5-3.3-9.3-3.3Zm33.689 27.9V11h11.9v59.7c0 2.667 1.467 4 4.4 4l2.1-.1v11.3c-1.133.2-2.333.3-3.6.3-5.133 0-8.9-1.3-11.3-3.9-2.333-2.6-3.5-6.533-3.5-11.8Zm73.82-7h-39.5c.467 4.133 1.967 7.433 4.5 9.9 2.534 2.4 5.867 3.6 10 3.6 2.734 0 5.2-.667 7.4-2s3.767-3.133 4.7-5.4h12c-1.6 5.267-4.6 9.533-9 12.8-4.333 3.2-9.466 4.8-15.4 4.8-7.733 0-14-2.567-18.8-7.7-4.733-5.133-7.1-11.633-7.1-19.5 0-7.667 2.4-14.1 7.2-19.3 4.8-5.2 11-7.8 18.6-7.8 7.6 0 13.734 2.567 18.4 7.7 4.734 5.067 7.1 11.467 7.1 19.2l-.1 3.7Zm-25.4-20.9c-3.733 0-6.833 1.1-9.3 3.3-2.466 2.2-4 5.133-4.6 8.8h27.6c-.533-3.667-2-6.6-4.4-8.8-2.4-2.2-5.5-3.3-9.3-3.3Zm79.089 13.6V86h-11.9V54.9c0-7.867-3.266-11.8-9.8-11.8-3.533 0-6.366 1.133-8.5 3.4-2.066 2.267-3.1 5.367-3.1 9.3V86h-11.9V34.1h11V41c1.267-2.333 3.2-4.267 5.8-5.8 2.6-1.533 5.834-2.3 9.7-2.3 7.2 0 12.4 2.733 15.6 8.2 4.4-5.467 10.267-8.2 17.6-8.2 6.067 0 10.734 1.9 14 5.7 3.267 3.733 4.9 8.667 4.9 14.8V86h-11.9V54.9c0-7.867-3.266-11.8-9.8-11.8-3.6 0-6.466 1.167-8.6 3.5-2.066 2.267-3.1 5.467-3.1 9.6Zm92.581 7.3h-39.5c.467 4.133 1.967 7.433 4.5 9.9 2.533 2.4 5.867 3.6 10 3.6 2.733 0 5.2-.667 7.4-2s3.767-3.133 4.7-5.4h12c-1.6 5.267-4.6 9.533-9 12.8-4.333 3.2-9.467 4.8-15.4 4.8-7.733 0-14-2.567-18.8-7.7-4.733-5.133-7.1-11.633-7.1-19.5 0-7.667 2.4-14.1 7.2-19.3 4.8-5.2 11-7.8 18.6-7.8 7.6 0 13.733 2.567 18.4 7.7 4.733 5.067 7.1 11.467 7.1 19.2l-.1 3.7Zm-25.4-20.9c-3.733 0-6.833 1.1-9.3 3.3-2.467 2.2-4 5.133-4.6 8.8h27.6c-.533-3.667-2-6.6-4.4-8.8-2.4-2.2-5.5-3.3-9.3-3.3Zm44.889-8.5V41c1.2-2.267 3.167-4.167 5.9-5.7 2.8-1.6 6.167-2.4 10.1-2.4 6.133 0 10.867 1.867 14.2 5.6 3.4 3.733 5.1 8.7 5.1 14.9V86h-11.9V54.9c0-3.667-.867-6.533-2.6-8.6-1.667-2.133-4.233-3.2-7.7-3.2-3.8 0-6.8 1.133-9 3.4-2.133 2.267-3.2 5.4-3.2 9.4V86h-11.9V34.1h11Zm70.054 41.3v10.3c-1.467.4-3.533.6-6.2.6-10.133 0-15.2-5.1-15.2-15.3V43.6h-7.9v-9.5h7.9V20.6h11.9v13.5h9.7v9.5h-9.7v26.2c0 4.067 1.933 6.1 5.8 6.1l3.7-.5Z"/></svg>