<svg width="27" height="30" viewBox="0 0 27 30" fill="none" xmlns="http://www.w3.org/2000/svg">
<g clip-path="url(#clip0_2905_12947)">
<path d="M15.248 18.2518C14.5979 18.7328 13.8429 18.9871 13.0644 18.9871C12.2859 18.9871 11.5308 18.7328 10.8808 18.2518L0.17397 10.3293C0.114568 10.2854 0.0566973 10.2396 0 10.1924V23.1743C0 24.6627 1.08827 25.8439 2.40532 25.8439H23.7233C25.0644 25.8439 26.1287 24.6361 26.1287 23.1743V10.1924C26.0719 10.2396 26.0139 10.2856 25.9543 10.3296L15.248 18.2518Z" fill="#F5F5F5"/>
<path d="M1.0232 8.91537L11.73 16.8379C12.1353 17.1378 12.5998 17.2878 13.0643 17.2878C13.5289 17.2878 13.9934 17.1378 14.3987 16.8379L25.1055 8.91537C25.7462 8.44157 26.1287 7.6486 26.1287 6.79276C26.1287 5.32118 25.05 4.12402 23.7242 4.12402H2.4045C1.07868 4.12408 0 5.32124 0 6.79418C0 7.6486 0.382541 8.44157 1.0232 8.91537Z" fill="#F5F5F5"/>
</g>
<defs>
<clipPath id="clip0_2905_12947">
<rect width="26.1287" height="29" fill="white" transform="translate(0 0.484375)"/>
</clipPath>
</defs>
</svg>
