<svg xmlns="http://www.w3.org/2000/svg" width="27" height="30" fill="none" viewBox="0 0 27 30"><g fill="#F5F5F5" clip-path="url(#a)"><path d="M15.248 18.252a3.655 3.655 0 0 1-2.184.735 3.654 3.654 0 0 1-2.183-.735L.174 10.329A3.83 3.83 0 0 1 0 10.192v12.982c0 1.489 1.088 2.67 2.405 2.67h21.318c1.341 0 2.406-1.208 2.406-2.67V10.192a3.866 3.866 0 0 1-.175.138l-10.706 7.922Z"/><path d="m1.023 8.915 10.707 7.923c.405.3.87.45 1.334.45.465 0 .93-.15 1.335-.45l10.707-7.923c.64-.473 1.023-1.266 1.023-2.122 0-1.472-1.079-2.669-2.405-2.669H2.404C1.08 4.124 0 5.321 0 6.794c0 .855.383 1.648 1.023 2.121Z"/></g><defs><clipPath id="a"><path fill="#fff" d="M0 .484h26.129v29H0z"/></clipPath></defs></svg>