<svg xmlns="http://www.w3.org/2000/svg" width="25" height="25" fill="none" viewBox="0 0 25 25"><path fill="#000" d="M24.841 12.014c-.223-.305-5.545-7.48-12.341-7.48-6.797 0-12.118 7.175-12.341 7.48a.825.825 0 0 0 0 .973c.223.305 5.544 7.48 12.34 7.48 6.797 0 12.119-7.175 12.342-7.48a.824.824 0 0 0 0-.973ZM12.5 18.819c-5.006 0-9.342-4.762-10.626-6.32C3.156 10.942 7.483 6.183 12.5 6.183c5.006 0 9.342 4.761 10.626 6.319-1.282 1.558-5.61 6.318-10.626 6.318Z"/><path fill="#000" d="M12.5 7.555A4.95 4.95 0 0 0 7.555 12.5a4.95 4.95 0 0 0 4.945 4.945 4.95 4.95 0 0 0 4.945-4.945A4.95 4.95 0 0 0 12.5 7.555Zm0 8.242A3.3 3.3 0 0 1 9.203 12.5 3.3 3.3 0 0 1 12.5 9.203a3.3 3.3 0 0 1 3.296 3.297 3.3 3.3 0 0 1-3.296 3.296Z"/></svg>