<svg xmlns="http://www.w3.org/2000/svg" width="38" height="39" fill="none" viewBox="0 0 38 39"><g clip-path="url(#a)"><path fill="#F5F5F5" d="M19 1.776c-10.498 0-19 8.36-19 18.671 0 8.25 5.444 15.247 12.991 17.714.95.176 1.299-.402 1.299-.897 0-.444-.016-1.619-.024-3.175-5.285 1.126-6.4-2.505-6.4-2.505-.864-2.155-2.114-2.731-2.114-2.731-1.72-1.158.133-1.134.133-1.134 1.908.13 2.91 1.924 2.91 1.924 1.695 2.855 4.448 2.03 5.534 1.553.171-1.208.66-2.03 1.204-2.497-4.22-.467-8.655-2.072-8.655-9.226 0-2.037.736-3.703 1.955-5.01-.213-.471-.855-2.37.167-4.941 0 0 1.59-.5 5.225 1.914a18.55 18.55 0 0 1 4.75-.63c1.615.01 3.23.216 4.75.63 3.61-2.414 5.2-1.914 5.2-1.914 1.022 2.571.38 4.47.19 4.942 1.212 1.306 1.948 2.972 1.948 5.01 0 7.172-4.44 8.75-8.668 9.21.665.56 1.282 1.705 1.282 3.454 0 2.499-.024 4.507-.024 5.113 0 .49.333 1.073 1.307.887C32.56 35.687 38 28.685 38 20.447c0-10.31-8.507-18.67-19-18.67Z"/></g><defs><clipPath id="a"><path fill="#fff" d="M0 .984h38v38H0z"/></clipPath></defs></svg>