<svg width="10" height="10" viewBox="0 0 10 10" fill="none" xmlns="http://www.w3.org/2000/svg">
<path d="M8.53577 1.46439C6.58314 -0.488022 3.41724 -0.488239 1.46439 1.46439C-0.488239 3.41702 -0.488022 6.58293 1.46439 8.53577C3.41702 10.488 6.58293 10.4882 8.53577 8.53577C10.4882 6.58293 10.488 3.41724 8.53577 1.46439ZM5.65205 7.17402C5.65205 7.53424 5.36009 7.8262 4.99986 7.8262C4.63964 7.8262 4.34768 7.53424 4.34768 7.17402V4.56529C4.34768 4.20507 4.63964 3.91311 4.99986 3.91311C5.36009 3.91311 5.65205 4.20507 5.65205 4.56529V7.17402ZM4.98834 3.4505C4.61269 3.4505 4.36225 3.18441 4.37007 2.85593C4.36225 2.51158 4.61269 2.25353 4.99595 2.25353C5.37943 2.25353 5.62205 2.51179 5.63009 2.85593C5.62987 3.18441 5.37965 3.4505 4.98834 3.4505Z" fill="black"/>
</svg>
