<svg xmlns="http://www.w3.org/2000/svg" width="77" height="76" fill="none" viewBox="0 0 77 76"><g filter="url(#a)"><circle cx="38.5" cy="34" r="33.75" fill="url(#b)" stroke="url(#c)" stroke-width=".5"/><g clip-path="url(#d)"><path fill="#B77866" d="M33.588 54.533a.617.617 0 0 1-.593-.78l.97-3.486a.615.615 0 1 1 1.185.33l-.97 3.486a.615.615 0 0 1-.592.45Z"/><path fill="#EDA751" d="M34.559 52.219a1.786 1.786 0 0 1-1.722-2.266l.919-3.306a1.786 1.786 0 1 1 3.442.958l-.92 3.306a1.787 1.787 0 0 1-1.72 1.308Zm12.355-3.898c-.83 0-1.616-.235-2.374-.706-1.058-.66-1.879-1.665-2.748-2.728l-.063-.078a1.117 1.117 0 0 1 1.73-1.412l.063.077c1.723 2.11 2.634 3.093 4.502 2.381 3.724-1.418 6.133-1.44 8.315-.076a1.117 1.117 0 1 1-1.183 1.893c-1.534-.958-3.31-.883-6.337.27-.663.253-1.296.38-1.905.38Z"/><path fill="#FCD79D" d="M56.34 45.779a6.975 6.975 0 0 0-.818-.44c-.461.314-1.022 1.01-1.104 1.961.254.1.499.223.738.373a1.116 1.116 0 1 0 1.184-1.894Z"/><path fill="#EDA751" d="M42.257 55c-.028 0-.056 0-.085-.002a1.786 1.786 0 0 1-1.701-1.867c.077-1.666-.142-3.986-.641-4.984a1.787 1.787 0 1 1 3.196-1.599c.958 1.918 1.088 5.144 1.014 6.748A1.787 1.787 0 0 1 42.257 55Zm-14.903-9.822c-1.284 0-2.532-.433-3.729-1.297a1.787 1.787 0 0 1 2.092-2.897c1.693 1.222 2.975.578 5.39-1.434a1.787 1.787 0 0 1 2.288 2.745c-1.207 1.005-2.514 2.03-4.062 2.548a6.206 6.206 0 0 1-1.98.335Zm20.55-1.894c-1.366 0-2.666-.29-3.594-.784a1.787 1.787 0 0 1 1.677-3.155c1.158.616 4.012.5 4.782-.699a1.787 1.787 0 0 1 3.006 1.932c-1.241 1.932-3.643 2.706-5.871 2.706Z"/><path fill="#A35F00" d="M35.956 45.405a1.786 1.786 0 0 0-2.2 1.242l-.78 2.802c.985.66 2.103 1.156 3.308 1.442l.914-3.286a1.787 1.787 0 0 0-1.242-2.2Zm7.07 1.143a1.787 1.787 0 1 0-3.196 1.599c.307.614.508 1.728.599 2.883a10.197 10.197 0 0 0 3.46-1.247c-.15-1.164-.417-2.341-.863-3.235Z" opacity=".2"/><path fill="#A35F00" d="M47.551 46.004c-1.561.38-2.458-.606-4.029-2.53l-.063-.077a1.117 1.117 0 0 0-1.73 1.412l.064.078c.868 1.063 1.689 2.068 2.748 2.727.451.282.913.478 1.388.592a9.353 9.353 0 0 0 1.622-2.202Zm.755-6.309c-.886.062-1.783-.065-2.318-.35A1.787 1.787 0 1 0 44.31 42.5c.928.494 2.228.784 3.594.784.188 0 .377-.006.566-.017a8.79 8.79 0 0 0-.164-3.572Zm-17.198-.145c-.88.733-1.608 1.283-2.261 1.629a8.765 8.765 0 0 0 .488 3.664c1.547-.518 2.854-1.543 4.06-2.547a1.787 1.787 0 0 0-2.287-2.745Z" opacity=".2"/><path fill="#FCD690" d="M38.7 49.531c4.551 0 8.24-3.428 8.24-7.656 0-4.23-3.689-7.657-8.24-7.657-4.55 0-8.24 3.428-8.24 7.657 0 4.228 3.69 7.656 8.24 7.656Z"/><path fill="#C17A00" d="M37.497 49.45c-3.766-2.472-2.599-7.539-1.96-9.755v-4.892c-2.98 1.152-5.077 3.885-5.077 7.072 0 3.849 3.056 7.034 7.037 7.575Z" opacity=".15"/><path fill="#EDA751" d="M33.685 28.597c1.613-1.353 2.69-3.624.415-6.981-2.292-3.384-5.705-4.233-8.37-3.919a1.666 1.666 0 0 0-1.398 1.174c-.771 2.57-.529 6.077 2.406 8.923 2.911 2.822 5.335 2.156 6.947.803Z"/><path fill="#FF91AB" d="M24.225 19.264c-.633 2.526-.275 5.827 2.513 8.53 2.523 2.446 4.68 2.271 6.26 1.3-1.087-7.376-5.833-9.332-8.773-9.83Z"/><path fill="#EDA751" d="M43.715 28.597c-1.613-1.353-2.69-3.624-.415-6.981 2.292-3.384 5.705-4.233 8.37-3.919.657.078 1.208.54 1.398 1.174.772 2.57.529 6.077-2.406 8.923-2.911 2.822-5.335 2.156-6.947.803Z"/><path fill="#FF91AB" d="M53.175 19.264c.633 2.526.275 5.827-2.512 8.53-2.524 2.446-4.68 2.271-6.26 1.3 1.086-7.376 5.833-9.332 8.772-9.83Z"/><path fill="#FFDC9C" d="M52.729 30.64c0 6.414-6.281 9.223-14.029 9.223s-14.029-2.81-14.029-9.223c0-6.415 6.281-11.615 14.03-11.615 7.747 0 14.028 5.2 14.028 11.615Z"/><path fill="#C17A00" d="M31.21 20.818c-3.93 2.058-6.539 5.688-6.539 9.821 0 5.514 4.642 8.364 10.867 9.056-8.936-5.338-7.77-12.517-4.328-18.877Z" opacity=".15"/><path fill="#FF91AB" d="M31.816 32.932c1.403 0 2.54-.905 2.54-2.023 0-1.117-1.137-2.022-2.54-2.022s-2.54.905-2.54 2.023c0 1.117 1.137 2.022 2.54 2.022Zm13.768 0c1.403 0 2.54-.905 2.54-2.023 0-1.117-1.137-2.022-2.54-2.022s-2.54.905-2.54 2.023c0 1.117 1.137 2.022 2.54 2.022Z"/><path fill="#495059" d="M33.296 29.507a.615.615 0 0 1-.615-.615v-.897a.615.615 0 1 1 1.23 0v.897c0 .34-.275.615-.615.615Zm10.807 0a.615.615 0 0 1-.615-.615v-.897a.615.615 0 1 1 1.23 0v.897c0 .34-.275.615-.615.615Zm-5.403.689a2.505 2.505 0 0 1-1.888-.86.615.615 0 1 1 .927-.808 1.274 1.274 0 0 0 1.922 0 .615.615 0 0 1 .928.808 2.505 2.505 0 0 1-1.889.86ZM28.234 31.29a.616.616 0 0 1-.149-1.213c.704-.176 2.38-.301 3.197-.193a.615.615 0 0 1-.161 1.22c-.64-.085-2.178.027-2.737.167a.608.608 0 0 1-.15.018Zm.809 3.009a.615.615 0 0 1-.366-1.11c.584-.43 2.086-1.185 2.882-1.397a.615.615 0 0 1 .316 1.19c-.624.165-2.003.855-2.467 1.197a.613.613 0 0 1-.365.12Zm20.123-3.009c-.05 0-.1-.007-.15-.02-.559-.139-2.096-.251-2.737-.166a.616.616 0 0 1-.161-1.22c.816-.108 2.493.017 3.197.193a.616.616 0 0 1-.15 1.212Zm-.809 3.01a.612.612 0 0 1-.365-.121c-.464-.342-1.843-1.032-2.467-1.198a.615.615 0 1 1 .316-1.189c.796.212 2.298.966 2.881 1.397a.615.615 0 0 1-.365 1.11Z"/><path fill="#495059" d="M47.921 28.098c-3.687 0-7.094-.504-9.576-1.008-4.04-.82-7.895-2.083-10.574-3.466a.615.615 0 1 1 .565-1.093c4.216 2.176 14.381 5.214 23.71 4.101a.616.616 0 0 1 .146 1.222c-1.44.172-2.876.244-4.27.244Z"/><path fill="#495059" d="M42.39 26.395a.56.56 0 0 0-.381.53v1.467c0 1.136.883 2.103 2.018 2.144a2.095 2.095 0 0 0 2.171-2.094v-1.517a.56.56 0 0 0-.382-.53 5.391 5.391 0 0 0-3.425 0Zm-8.068-3.701a3.257 3.257 0 0 1-2.902-1.778l-.505-.992c-.49-.961.39-2.05 1.433-1.771l.873.232a.976.976 0 0 0 1.229-.966 4.49 4.49 0 0 1 .234-1.57c1.28-3.799 6.753-3.799 8.032 0a4.49 4.49 0 0 1 .234 1.57.976.976 0 0 0 1.229.966l.873-.232c1.043-.278 1.922.81 1.433 1.771l-.505.992a3.257 3.257 0 0 1-2.902 1.778h-8.756Z"/><path fill="#fff" d="M37.49 19.551a.615.615 0 0 1-.435-1.05l2.42-2.42a.615.615 0 1 1 .87.87l-2.42 2.42a.613.613 0 0 1-.434.18Z"/><path fill="#fff" d="M39.91 19.551a.613.613 0 0 1-.435-.18l-2.42-2.42a.615.615 0 1 1 .87-.87l2.42 2.42a.615.615 0 0 1-.435 1.05Z"/><path fill="#B77866" d="m24.6 40.7-2.23.597.739 2.753a1.154 1.154 0 0 0 2.23-.597l-.739-2.754Z"/><path fill="#DEE2E5" d="M18.83 24.003a14.887 14.887 0 0 0 .972 11.335l2.023 3.908 2.223-.596-3.917-14.618c-.175-.655-1.097-.675-1.302-.029Z"/><path fill="#BD4568" d="m26.325 40.237-5.68 1.522a.555.555 0 0 1-.679-.393l-.262-.977a.555.555 0 0 1 .393-.68l5.679-1.522c.296-.08.6.096.68.393l.262.977c.08.296-.097.6-.393.68Z"/></g></g><defs><radialGradient id="b" cx="0" cy="0" r="1" gradientTransform="rotate(56.931 10.363 -.249) scale(144.161 2536.15)" gradientUnits="userSpaceOnUse"><stop stop-color="#467EEE" stop-opacity=".42"/><stop offset="1" stop-color="#6C6C6C" stop-opacity="0"/></radialGradient><radialGradient id="c" cx="0" cy="0" r="1" gradientTransform="rotate(45.876 2.895 6.72) scale(111.163 161.681)" gradientUnits="userSpaceOnUse"><stop stop-color="#fff" stop-opacity=".8"/><stop offset="1" stop-color="#fff" stop-opacity="0"/></radialGradient><clipPath id="d"><path fill="#fff" d="M16.5 13h42v42h-42z"/></clipPath><filter id="a" width="76" height="76" x=".5" y="0" color-interpolation-filters="sRGB" filterUnits="userSpaceOnUse"><feFlood flood-opacity="0" result="BackgroundImageFix"/><feColorMatrix in="SourceAlpha" result="hardAlpha" values="0 0 0 0 0 0 0 0 0 0 0 0 0 0 0 0 0 0 127 0"/><feOffset dy="4"/><feGaussianBlur stdDeviation="2"/><feComposite in2="hardAlpha" operator="out"/><feColorMatrix values="0 0 0 0 0 0 0 0 0 0 0 0 0 0 0 0 0 0 0.25 0"/><feBlend in2="BackgroundImageFix" result="effect1_dropShadow_2569_3081"/><feBlend in="SourceGraphic" in2="effect1_dropShadow_2569_3081" result="shape"/></filter></defs></svg>