<svg xmlns="http://www.w3.org/2000/svg" width="39" height="39" fill="none" viewBox="0 0 39 39"><g fill-rule="evenodd" clip-path="url(#a)" clip-rule="evenodd"><path fill="#F5F5F5" d="M19.5 38.984c10.77 0 19.5-8.506 19.5-19 0-10.493-8.73-19-19.5-19S0 9.491 0 19.984c0 10.494 8.73 19 19.5 19Z"/><path fill="#2E3E66" d="M15.935 9.837c0-.767.64-1.389 1.428-1.389 5.346 0 9.68 4.214 9.68 9.412 0 .767-.64 1.389-1.428 1.389-.79 0-1.428-.622-1.428-1.389 0-3.664-3.056-6.634-6.824-6.634-.789 0-1.428-.622-1.428-1.39Z"/><path fill="#2E3E66" d="M29.911 16.472c.789 0 1.428.621 1.428 1.388 0 5.198-4.333 9.412-9.68 9.412-.788 0-1.428-.621-1.428-1.388 0-.767.64-1.389 1.429-1.389 3.768 0 6.823-2.97 6.823-6.635 0-.767.64-1.388 1.428-1.388Z"/><path fill="#2E3E66" d="M23.088 30.132c0 .767-.64 1.388-1.429 1.388-5.345 0-9.68-4.213-9.68-9.412 0-.767.64-1.388 1.429-1.388s1.428.621 1.428 1.388c0 3.665 3.055 6.635 6.823 6.635.79 0 1.429.622 1.429 1.389Z"/><path fill="#2E3E66" d="M9.089 23.497c-.789 0-1.428-.622-1.428-1.389 0-5.198 4.333-9.412 9.68-9.412.788 0 1.427.622 1.427 1.389s-.639 1.389-1.428 1.389c-3.768 0-6.823 2.97-6.823 6.634 0 .767-.64 1.389-1.428 1.389Z"/></g><defs><clipPath id="a"><path fill="#fff" d="M0 .984h39v38H0z"/></clipPath></defs></svg>