<svg xmlns="http://www.w3.org/2000/svg" width="167" height="35" fill="none" viewBox="0 0 167 35"><path fill="#F5F5F5" d="M52.079 31c7.944 0 13.116-4.927 13.116-12.5 0-7.572-5.171-12.5-13.116-12.5C44.209 6 39 10.928 39 18.5 39 26.073 44.209 31 52.079 31Zm0-3.768c-5.959 0-8.807-2.681-8.807-8.732 0-6.05 2.848-8.768 8.807-8.768 5.958 0 8.844 2.717 8.844 8.768 0 6.05-2.886 8.732-8.844 8.732Zm20.154 3.406V20.529c0-3.225 1.311-4.928 4.496-4.928 2.774 0 3.898 1.196 3.898 3.769v1.594h4.01v-2.355c0-3.406-1.837-6.34-6.071-6.34-3.823 0-5.846 2.318-6.408 5.216h-.263V12.63h-3.71v18.008h4.047ZM95.386 31c4.197 0 6.933-1.956 7.72-5.544h.262v5.182h3.71V6.362h-4.047v11.16h-.225c-.749-3.044-3.26-5.254-7.682-5.254-5.66 0-8.882 3.768-8.882 9.384 0 5.544 3.26 9.348 9.144 9.348Zm-5.06-9.348c0-4.348 2.324-5.833 6.222-5.833 4.159 0 6.483 1.884 6.483 5.725v.29c0 3.767-2.436 5.579-6.408 5.579-4.01 0-6.296-1.45-6.296-5.76ZM118.578 31c4.797 0 7.27-2.899 7.87-5.942h.224v5.58h3.71V12.63h-4.009v8.914c0 3.912-1.912 5.941-6.034 5.941-3.935 0-5.546-1.702-5.546-5.072V12.63h-4.01v10.834c0 4.166 2.548 7.536 7.795 7.536Zm19.529-.362v-8.913c0-3.986 1.386-5.942 5.396-5.942 3.598 0 5.022 1.521 5.022 5.072v9.783h4.01v-8.913c0-3.986 1.424-5.942 5.396-5.942 3.598 0 5.059 1.521 5.059 5.072v9.783H167V19.804c0-4.347-2.436-7.536-7.27-7.536-4.722 0-6.821 2.862-7.308 5.942h-.225c-.524-3.442-2.81-5.942-7.045-5.942-4.647 0-6.671 2.79-7.158 5.797h-.225V12.63h-3.71v18.008h4.048Z"/><g fill="#F5F5F5" clip-path="url(#a)"><path d="M24.753 7.876a.049.049 0 0 1 0-.064.05.05 0 0 1 .066 0c2.273 2.238 3.229 5.353 2.94 8.573-.288 3.22-1.828 6.546-4.538 9.214-2.068 2.036-4.514 3.4-7.002 4.056-2.562.681-5.181.617-7.463-.219-.025-.008-.033-.032-.025-.057.009-.024.033-.032.058-.024 2.265.827 4.86.892 7.414.21 2.479-.656 4.909-2.01 6.96-4.03 2.702-2.66 4.226-5.962 4.514-9.166.28-3.188-.667-6.27-2.924-8.493ZM5.214 27.116a.049.049 0 0 1 0 .065.05.05 0 0 1-.066 0c-2.273-2.239-3.229-5.353-2.94-8.573.288-3.22 1.828-6.546 4.546-9.223 2.068-2.036 4.514-3.398 7.002-4.055 2.562-.682 5.181-.617 7.463.219.025.008.033.032.025.056-.009.025-.033.033-.058.025-2.265-.828-4.86-.893-7.413-.211-2.48.657-4.91 2.011-6.96 4.031-2.703 2.66-4.227 5.962-4.515 9.166-.288 3.196.66 6.278 2.916 8.5ZM24.11 8.452c.017-.017.05-.017.066 0a.049.049 0 0 1 0 .065l-7.767 7.648c-.017-.024-.042-.04-.066-.064l7.767-7.65ZM13.633 18.89l-7.768 7.65a.05.05 0 0 1-.066 0 .049.049 0 0 1 0-.065l7.768-7.65.066.066Z"/><path d="M17.002.235a.049.049 0 0 1 0-.065.05.05 0 0 1 .066 0l7.75 7.633a.049.049 0 0 1 0 .065c-.016.016-.049.016-.065 0L17.002.235ZM5.148 27.18a.049.049 0 0 1 0-.064.05.05 0 0 1 .066 0l7.752 7.632c.016.017.016.049 0 .065a.05.05 0 0 1-.066 0l-7.752-7.632Zm.651-.64a.049.049 0 0 1 0-.065.05.05 0 0 1 .066 0l8.55 8.428a.049.049 0 0 1 0 .065.05.05 0 0 1-.066 0L5.8 26.54Z"/><path fill-rule="evenodd" d="M15.082 12.135a5.48 5.48 0 0 1 3.699 1.42l-1.5 1.476a3.374 3.374 0 0 0-2.199-.812c-1.845 0-3.344 1.477-3.344 3.293 0 1.817 1.5 3.294 3.344 3.294 1.845 0 3.345-1.477 3.345-3.294 0-.94-.396-1.784-1.038-2.384l1.49-1.468c.116.113.223.227.33.34.124.138.24.284.346.438 1.08 1.517 2.488 2.49 4.3 2.97l.387.104-.387.106c-1.812.479-3.229 1.452-4.3 2.969a5.48 5.48 0 0 1-4.481 2.304 5.48 5.48 0 0 1-4.48-2.304c-1.072-1.525-2.48-2.499-4.293-2.977l-.387-.106.387-.105c1.813-.479 3.23-1.452 4.3-2.969a5.488 5.488 0 0 1 4.481-2.295Z" clip-rule="evenodd"/><path d="m24.819 7.812 1.795 1.768c1.112 1.095 1.944 2.303 2.505 3.626.56 1.322.848 2.757.848 4.29 0 4.827-1.68 9.207-4.39 12.37-2.71 3.172-6.459 5.126-10.602 5.126h-.305c-.098 0-.197-.008-.296-.008-.008 0-.025 0-.033-.016l-5.61-5.532c-.008-.008-.016-.032-.008-.049.008-.024.033-.032.058-.024 2.265.827 4.86.892 7.413.211 2.48-.657 4.91-2.012 6.96-4.031 2.703-2.66 4.227-5.962 4.515-9.166.288-3.196-.66-6.286-2.916-8.5l.066-.065Zm.873.99c1.639 2.124 2.314 4.817 2.067 7.583-.288 3.22-1.828 6.546-4.538 9.214-2.068 2.036-4.514 3.4-7.002 4.056-2.496.665-5.033.625-7.273-.146l5.46 5.378c.1.008.19.008.28.008h.297c4.11 0 7.834-1.947 10.528-5.094 2.693-3.147 4.365-7.503 4.365-12.313-.008-1.525-.288-2.944-.84-4.258s-1.384-2.515-2.488-3.593l-.856-.836ZM21.878 6.32l.041.04c.593.584.89 1.346.89 2.117 0 .762-.288 1.525-.873 2.109l-.009.008a.049.049 0 0 0 0 .065.05.05 0 0 0 .066 0l2.175-2.142a.049.049 0 0 0 0-.065l-2.183-2.15L15.618.026c-.1-.008-.198-.008-.297-.008h-.304C10.848 0 7.1 1.963 4.39 5.127 1.672 8.29 0 12.67 0 17.497c.008 1.54.288 2.968.848 4.29s1.393 2.531 2.505 3.626l1.795 1.768.033-.032.033-.033c-2.257-2.222-3.204-5.304-2.916-8.5.288-3.196 1.82-6.505 4.514-9.166 2.051-2.02 4.49-3.374 6.96-4.031a13.297 13.297 0 0 1 4.12-.446c1.44.073 2.948.316 3.986 1.346Z"/><path fill-rule="evenodd" d="M8.015 24.358a3.01 3.01 0 0 0-.008 4.291l-2.175-2.141 2.183-2.15Z" clip-rule="evenodd"/><path d="M8.048 24.39a2.954 2.954 0 0 0-.89 2.118c0 .762.288 1.525.873 2.109l.008.008a.049.049 0 0 1 0 .065.05.05 0 0 1-.065 0l-2.175-2.142a.049.049 0 0 1 0-.064l2.183-2.15.066.057Zm-.98 2.118c0-.552.148-1.111.453-1.598l-1.623 1.598 1.63 1.606a2.979 2.979 0 0 1-.46-1.606Zm7.916-10.983c.502 0 .963.187 1.318.487l-.066.065a1.944 1.944 0 0 0-1.252-.462 1.92 1.92 0 0 0-1.351.551 1.862 1.862 0 0 0 0 2.66c.346.341.823.552 1.35.552a1.92 1.92 0 0 0 1.351-.551 1.862 1.862 0 0 0 0-2.66l-.032-.033.065-.065.033.032a1.953 1.953 0 0 1 0 2.79 2.015 2.015 0 0 1-1.416.577c-.552 0-1.055-.22-1.417-.576a1.953 1.953 0 0 1 0-2.79 2.014 2.014 0 0 1 1.417-.577Z"/><path fill-rule="evenodd" d="M14.992 16.012c.362 0 .692.13.955.332l-.716.706a.472.472 0 0 0-.24-.057.495.495 0 1 0 0 .99.496.496 0 0 0 .322-.876l.708-.698c.289.268.478.657.478 1.079 0 .82-.675 1.476-1.5 1.476a1.487 1.487 0 0 1-1.498-1.476 1.48 1.48 0 0 1 1.49-1.476Z" clip-rule="evenodd"/><path d="M14.983 16.993a.51.51 0 0 1 .248.065l-.066.065a.427.427 0 0 0-.478.081.414.414 0 0 0-.124.292c0 .114.05.22.124.292a.427.427 0 0 0 .296.122.427.427 0 0 0 .297-.122.414.414 0 0 0 .124-.292.414.414 0 0 0-.124-.292c-.008-.008-.025-.016-.033-.032l.066-.065c.008.008.025.016.033.032a.487.487 0 0 1 0 .698.501.501 0 0 1-.709 0 .486.486 0 0 1 0-.698.468.468 0 0 1 .346-.146Z"/><path d="M17.397 15.054c.017-.016.05-.016.066 0a.049.049 0 0 1 0 .065l-2.447 2.41a.05.05 0 0 1-.065 0 .049.049 0 0 1 0-.066l2.446-2.409Z"/><path fill-rule="evenodd" d="M14.983 17.39a.11.11 0 0 1 .108.106c0 .057-.05.106-.107.106a.108.108 0 0 1-.107-.106c0-.057.049-.105.106-.105Z" clip-rule="evenodd"/><path d="M14.983 17.35a.16.16 0 0 1 .108.04.153.153 0 0 1 .04.106c0 .04-.016.08-.04.105a.158.158 0 0 1-.107.04.158.158 0 0 1-.108-.04.153.153 0 0 1-.04-.105.16.16 0 0 1 .04-.106.158.158 0 0 1 .107-.04Zm.042.105a.063.063 0 0 0-.042-.016.063.063 0 0 0-.04.016.062.062 0 0 0-.017.04c0 .017.008.033.016.041a.063.063 0 0 0 .041.016.064.064 0 0 0 .042-.016.062.062 0 0 0 .016-.04c.008-.017 0-.033-.016-.04Z"/><path d="m8.122 28.69-.041-.041a2.954 2.954 0 0 1-.89-2.117c0-.763.288-1.525.873-2.11l.008-.007a.049.049 0 0 0 0-.065.05.05 0 0 0-.065 0l-2.175 2.14a.049.049 0 0 0 0 .065l2.183 2.15 6.367 6.27c.099.008.198.008.297.008h.304c4.136 0 7.883-1.963 10.602-5.127 2.71-3.163 4.39-7.535 4.39-12.37-.008-1.54-.288-2.968-.848-4.29s-1.392-2.531-2.504-3.626l-1.796-1.768-.033.032-.033.033c2.257 2.222 3.204 5.304 2.916 8.5-.288 3.196-1.82 6.505-4.514 9.166-2.051 2.02-4.49 3.374-6.96 4.031a13.27 13.27 0 0 1-4.119.446c-1.417-.056-2.924-.3-3.962-1.322Z"/></g><defs><clipPath id="a"><path fill="#fff" d="M0 0h30v35H0z"/></clipPath></defs></svg>