<svg xmlns="http://www.w3.org/2000/svg" width="19" height="20" fill="none" viewBox="0 0 19 20"><path fill="#CAC9C9" d="M9.5 6.875c-.587 0-1.161.183-1.65.527a3.096 3.096 0 0 0-1.093 1.402 3.278 3.278 0 0 0-.169 1.806 3.18 3.18 0 0 0 .813 1.6c.415.437.944.734 1.52.855.575.12 1.172.059 1.715-.178a3.007 3.007 0 0 0 1.332-1.15 3.243 3.243 0 0 0-.372-3.944A2.905 2.905 0 0 0 9.5 6.875ZM15.91 10a6.79 6.79 0 0 1-.062.873l1.807 1.489a.473.473 0 0 1 .098.577l-1.71 3.106a.437.437 0 0 1-.228.197.412.412 0 0 1-.296-.004l-2.125-.899a6.488 6.488 0 0 1-1.44.886l-.318 2.374a.473.473 0 0 1-.148.273.43.43 0 0 1-.279.112H7.791a.433.433 0 0 1-.276-.107.473.473 0 0 1-.152-.265l-.317-2.374a6.22 6.22 0 0 1-1.44-.886l-2.125.898a.412.412 0 0 1-.296.005.438.438 0 0 1-.23-.197l-1.708-3.106a.473.473 0 0 1 .097-.577l1.807-1.49a7.17 7.17 0 0 1-.06-.885c0-.292.021-.584.06-.873L1.344 7.638a.473.473 0 0 1-.098-.577l1.71-3.106a.437.437 0 0 1 .229-.197.412.412 0 0 1 .296.004l2.124.899a6.484 6.484 0 0 1 1.44-.886l.318-2.374a.472.472 0 0 1 .148-.273.43.43 0 0 1 .28-.112h3.418c.1.002.198.04.275.107a.474.474 0 0 1 .152.265l.318 2.374a6.214 6.214 0 0 1 1.442.886l2.123-.898c.095-.038.2-.04.296-.004a.437.437 0 0 1 .229.196l1.709 3.106a.473.473 0 0 1-.098.578l-1.807 1.489c.039.293.06.589.061.885Z"/></svg>