<svg xmlns="http://www.w3.org/2000/svg" width="32" height="33" fill="none" viewBox="0 0 32 33"><path fill="#000" d="M30.036 11.95a4.095 4.095 0 0 1-1.731-.689 4.24 4.24 0 0 1-1.269-1.394 4.404 4.404 0 0 1-.284-3.713c.145-.394.166-.823.061-1.23a2.02 2.02 0 0 0-.645-1.035A15.57 15.57 0 0 0 21.493 1.1a1.912 1.912 0 0 0-1.21-.053 1.963 1.963 0 0 0-1.01.688 4.18 4.18 0 0 1-1.453 1.21 4.057 4.057 0 0 1-3.64 0 4.18 4.18 0 0 1-1.453-1.21 1.962 1.962 0 0 0-1.01-.688 1.913 1.913 0 0 0-1.21.053A15.628 15.628 0 0 0 6.15 3.616c-.331.27-.57.641-.68 1.06-.111.42-.089.864.063 1.27a4.38 4.38 0 0 1-.292 3.826 4.21 4.21 0 0 1-1.345 1.405c-.55.353-1.17.57-1.816.631a1.94 1.94 0 0 0-1.121.523 2.04 2.04 0 0 0-.6 1.107 16.113 16.113 0 0 0-.096 5.633c.068.439.274.843.587 1.15.313.306.716.497 1.145.545a4.067 4.067 0 0 1 1.85.657 4.212 4.212 0 0 1 1.352 1.458 4.375 4.375 0 0 1 .177 3.912c-.18.402-.226.856-.127 1.288.098.432.333.817.669 1.096a15.686 15.686 0 0 0 4.632 2.745 1.91 1.91 0 0 0 1.567-.107c.278-.148.517-.363.697-.626a4.153 4.153 0 0 1 1.478-1.352 4.018 4.018 0 0 1 1.921-.485 4.07 4.07 0 0 1 1.867.457c.58.3 1.083.735 1.47 1.271.257.356.622.615 1.037.736.415.12.857.096 1.258-.069a15.854 15.854 0 0 0 4.25-2.614c.32-.273.548-.643.651-1.058a2.08 2.08 0 0 0-.078-1.25 4.379 4.379 0 0 1 .234-3.802 4.217 4.217 0 0 1 1.307-1.421 4.07 4.07 0 0 1 1.785-.672 1.943 1.943 0 0 0 1.098-.55c.3-.3.5-.689.57-1.113.17-.912.263-1.838.276-2.767 0-.98-.088-1.957-.265-2.92a2.02 2.02 0 0 0-.562-1.087 1.923 1.923 0 0 0-1.074-.543Zm-8.724 4.55a5.584 5.584 0 0 1-.895 3.039 5.35 5.35 0 0 1-2.384 2.014 5.17 5.17 0 0 1-3.07.31 5.267 5.267 0 0 1-2.72-1.496 5.521 5.521 0 0 1-1.453-2.8c-.205-1.06-.1-2.16.302-3.16a5.437 5.437 0 0 1 1.957-2.454c.873-.6 1.9-.921 2.951-.921 1.409 0 2.76.576 3.756 1.601a5.551 5.551 0 0 1 1.556 3.867Z"/></svg>