<svg xmlns="http://www.w3.org/2000/svg" width="29" height="30" fill="none" viewBox="0 0 29 30"><g fill="#000" clip-path="url(#a)"><path d="M14.45 3.812a.58.58 0 0 0 .57-.59V.59a.58.58 0 0 0-.57-.59.58.58 0 0 0-.571.59v2.632c0 .326.255.59.57.59Zm13.943 16.46-1.008-1.04a1.86 1.86 0 0 0-2.26-.333l-1.899-1.962.093-.095a2.1 2.1 0 0 0 0-2.892 1.94 1.94 0 0 0-.993-.556c.051-.184.078-.377.078-.574 0-.548-.206-1.062-.578-1.446a1.94 1.94 0 0 0-.993-.555 2.15 2.15 0 0 0 .079-.574 2.06 2.06 0 0 0-.58-1.447 1.949 1.949 0 0 0-.992-.554 2.101 2.101 0 0 0-.5-2.022 1.941 1.941 0 0 0-1.61-.584L13.468 4.9c-.574-.113-1.291-.187-1.743.24a1.064 1.064 0 0 0-.087.092 1.936 1.936 0 0 0-2.08.474 2.066 2.066 0 0 0-.579 1.446c0 .198.027.39.079.574-.374.08-.717.27-.992.555a2.065 2.065 0 0 0-.58 1.445c0 .197.028.39.08.575a1.94 1.94 0 0 0-.993.554 2.07 2.07 0 0 0-.579 1.447c0 .42.121.82.345 1.157-.283.1-.542.265-.76.489a2.099 2.099 0 0 0 .001 2.894l.092.095-1.899 1.96a1.86 1.86 0 0 0-2.158.388l-1.008 1.04c-.359.37-.556.865-.556 1.392 0 .526.197 1.02.556 1.392l1.258 1.3c.223.23.584.23.807 0a.605.605 0 0 0 0-.835l-1.259-1.3a.795.795 0 0 1-.221-.557c0-.212.078-.41.22-.557l1.01-1.04c.251-.26.637-.3.93-.118a.594.594 0 0 0 .235.209l5.783 5.973a.59.59 0 0 0 .275.287c.122.143.19.326.19.52 0 .212-.079.41-.222.558l-1.007 1.04a.748.748 0 0 1-1.079.002L6.27 27.29a.557.557 0 0 0-.807 0 .605.605 0 0 0 0 .834l1.26 1.303a1.867 1.867 0 0 0 2.69 0l1.007-1.042c.36-.37.557-.865.557-1.392a2.01 2.01 0 0 0-.29-1.045l2.138-2.209.007-.007c.245-.261.926-.212 1.585-.165.468.034.99.071 1.5.01l2.341 2.419a2.013 2.013 0 0 0-.232.945c0 .526.197 1.02.556 1.39l1.008 1.042a1.859 1.859 0 0 0 2.69 0l6.114-6.317c.359-.37.556-.864.556-1.392a1.99 1.99 0 0 0-.556-1.392ZM13.255 6.06l2.475.485-1.482 1.532a3.601 3.601 0 0 1-.887-.668c-.472-.466-.809-1.005-.84-1.341a.532.532 0 0 1-.002-.059c.074-.019.272-.04.736.051Zm-2.892.482a.82.82 0 0 1 1.065-.105c.185.803.847 1.53 1.144 1.825.221.218.93.873 1.644 1.053a.89.89 0 0 1-.095 1.107.817.817 0 0 1-.592.252.817.817 0 0 1-.593-.253l-2.573-2.656a.873.873 0 0 1-.243-.612.87.87 0 0 1 .243-.611Zm-1.49 2.575a.82.82 0 0 1 1.185 0l2.072 2.139a.89.89 0 0 1 0 1.225.822.822 0 0 1-.594.252.822.822 0 0 1-.593-.252L9.37 10.856l-.007-.007-.492-.509a.874.874 0 0 1-.244-.613c0-.23.086-.447.245-.61ZM7.379 11.69a.818.818 0 0 1 .593-.252c.224 0 .432.088.589.248l1.576 1.63a.871.871 0 0 1 .244.61.872.872 0 0 1-.245.612.822.822 0 0 1-1.186 0l-.57-.59h-.001l-1-1.033a.875.875 0 0 1-.244-.613c0-.232.087-.45.244-.612Zm-.993 3.093a.82.82 0 0 1 1.187 0l.572.591a.87.87 0 0 1 .244.611.872.872 0 0 1-.245.612.817.817 0 0 1-.592.252.817.817 0 0 1-.594-.253l-.071-.074-.003-.003-.003-.003-.495-.51a.888.888 0 0 1 0-1.223ZM18.01 21.49a.557.557 0 0 0-.806-.001l-.508.524c-.482.5-1.356.436-2.2.376-.918-.066-1.867-.134-2.481.518l-2.101 2.17-5.255-5.427 1.86-1.92a1.93 1.93 0 0 0 2.431-.298c.374-.385.58-.899.58-1.447v-.015h.014c.53 0 1.026-.212 1.398-.596.374-.385.58-.899.58-1.447v-.015h.014c.53 0 1.027-.212 1.4-.597.39-.403.582-.933.578-1.462h.015a1.93 1.93 0 0 0 1.4-.597c.372-.385.577-.9.577-1.447 0-.383-.1-.75-.288-1.067l1.63-1.685a.828.828 0 0 1 .478-.244.822.822 0 0 1 .709.243.89.89 0 0 1 0 1.225l-.495.511-.005.005-.572.59a.604.604 0 0 0 0 .835c.222.23.583.23.806 0l.498-.515.076-.077a.82.82 0 0 1 1.184.002.87.87 0 0 1 .244.612.872.872 0 0 1-.245.612l-.5.517-.571.59a.605.605 0 0 0-.002.834c.222.23.583.231.807.001l.574-.591a.818.818 0 0 1 1.186.001.871.871 0 0 1 .243.611.872.872 0 0 1-.244.612l-.995 1.03a.605.605 0 0 0 0 .834.56.56 0 0 0 .806 0l.488-.505.009-.008a.816.816 0 0 1 .592-.252.82.82 0 0 1 .593.253.888.888 0 0 1 0 1.223l-.496.512v.001h-.001l-.787.814a.605.605 0 0 0 0 .834.56.56 0 0 0 .806 0l.385-.397 1.845 1.907-5.254 5.428-1.882-1.945c.131-.087.257-.19.375-.312l.507-.524a.604.604 0 0 0 0-.834Zm9.577.73-6.114 6.317a.744.744 0 0 1-.539.23.744.744 0 0 1-.539-.23l-1.008-1.041a.794.794 0 0 1-.221-.556c0-.211.078-.409.221-.556l6.114-6.317a.745.745 0 0 1 1.078 0l1.008 1.04a.795.795 0 0 1 .222.556c0 .212-.08.41-.222.557ZM6.875 3.315a.559.559 0 0 0 .807 0 .605.605 0 0 0-.001-.835L5.602.334a.557.557 0 0 0-.806 0 .605.605 0 0 0 0 .835l2.079 2.146Zm14.746.172a.56.56 0 0 0 .403-.172l2.077-2.146a.605.605 0 0 0 0-.835.557.557 0 0 0-.806 0L21.218 2.48a.605.605 0 0 0 0 .834.56.56 0 0 0 .403.173Z"/><path d="M3.558 25.383a.605.605 0 0 0 .007.835l.002.002a.557.557 0 0 0 .806-.008.606.606 0 0 0-.008-.836.557.557 0 0 0-.807.007Zm15.848-4.743c.087 0 .175-.02.257-.063a.6.6 0 0 0 .253-.793.561.561 0 0 0-.766-.26l-.004.001a.598.598 0 0 0-.25.792c.1.205.301.324.51.324Z"/></g><defs><clipPath id="a"><path fill="#fff" d="M0 0h29v30H0z"/></clipPath></defs></svg>