<svg xmlns="http://www.w3.org/2000/svg" width="36" height="30" fill="none" viewBox="0 0 36 30"><path fill="#000" d="M36 3.838a15.387 15.387 0 0 1-4.253 1.165A7.339 7.339 0 0 0 34.995.924a14.75 14.75 0 0 1-4.68 1.787 7.396 7.396 0 0 0-5.39-2.336c-4.087 0-7.376 3.317-7.376 7.382 0 .585.05 1.148.17 1.683C11.584 9.141 6.155 6.2 2.507 1.72a7.43 7.43 0 0 0-1.01 3.731 7.391 7.391 0 0 0 3.279 6.134 7.288 7.288 0 0 1-3.335-.91v.082c0 3.586 2.558 6.565 5.913 7.251-.6.165-1.255.243-1.935.243-.473 0-.95-.027-1.397-.126.956 2.923 3.67 5.072 6.896 5.142a14.83 14.83 0 0 1-9.15 3.147c-.606 0-1.186-.027-1.767-.101 3.27 2.108 7.144 3.312 11.322 3.312 13.581 0 21.006-11.25 21.006-21.002 0-.326-.011-.64-.027-.953C33.766 6.63 34.996 5.332 36 3.838Z"/></svg>