<svg xmlns="http://www.w3.org/2000/svg" width="36" height="37" fill="none" viewBox="0 0 36 37"><g clip-path="url(#a)"><path fill="#F5F5F5" d="M36 7.822a15.387 15.387 0 0 1-4.253 1.166 7.339 7.339 0 0 0 3.247-4.08 14.75 14.75 0 0 1-4.68 1.787 7.396 7.396 0 0 0-5.39-2.336c-4.087 0-7.376 3.317-7.376 7.383 0 .585.05 1.147.17 1.683-6.135-.3-11.564-3.24-15.212-7.72a7.43 7.43 0 0 0-1.01 3.73 7.391 7.391 0 0 0 3.279 6.134 7.29 7.29 0 0 1-3.335-.91v.082c0 3.586 2.558 6.565 5.913 7.252a7.37 7.37 0 0 1-1.935.243c-.473 0-.95-.027-1.397-.126.956 2.922 3.67 5.071 6.896 5.14a14.83 14.83 0 0 1-9.15 3.149c-.606 0-1.186-.027-1.767-.102 3.27 2.109 7.144 3.312 11.322 3.312 13.581 0 21.006-11.25 21.006-21.001 0-.326-.011-.641-.027-.954 1.465-1.04 2.695-2.338 3.699-3.832Z"/></g><defs><clipPath id="a"><path fill="#fff" d="M0 .984h36v36H0z"/></clipPath></defs></svg>