<svg xmlns="http://www.w3.org/2000/svg" width="16" height="14" fill="none" viewBox="0 0 16 14"><path fill="#F5F5F5" fill-rule="evenodd" d="M8 2.378c1.232 0 2.232 1 2.232 2.232 0 .673-.321 1.547-.826 2.135-.39.456-.886.74-1.406.74-.52 0-1.017-.284-1.407-.74-.504-.588-.826-1.462-.826-2.135 0-1.232 1-2.232 2.233-2.232ZM12.535.459c.963 0 1.744.781 1.744 1.744 0 .51-.243 1.175-.626 1.622-.309.362-.706.58-1.118.58-.412 0-.81-.218-1.118-.58-.383-.447-.626-1.111-.626-1.622 0-.963.781-1.744 1.744-1.744Zm-9.07 0c.963 0 1.744.781 1.744 1.744 0 .51-.242 1.175-.625 1.622-.31.362-.706.58-1.119.58-.412 0-.81-.218-1.118-.58-.383-.447-.626-1.111-.626-1.622 0-.963.781-1.744 1.744-1.744ZM8 7.854a3.942 3.942 0 0 1 3.942 3.942v.733c0 .559-.453 1.011-1.012 1.011H5.07a1.011 1.011 0 0 1-1.012-1.011v-.733A3.942 3.942 0 0 1 8 7.854ZM4.168 9.18H1.372A.872.872 0 0 1 .5 8.308v-.524A2.965 2.965 0 0 1 5.16 5.35c.146.65.466 1.338.903 1.848.083.097.17.187.26.271a4.66 4.66 0 0 0-2.155 1.71Zm6.673-3.83a2.965 2.965 0 0 1 4.66 2.434v.524a.874.874 0 0 1-.873.872h-2.796a4.66 4.66 0 0 0-2.154-1.71c.09-.085.176-.175.259-.272.437-.51.758-1.199.904-1.848Z" clip-rule="evenodd"/></svg>