<svg xmlns="http://www.w3.org/2000/svg" width="35" height="35" fill="none" viewBox="0 0 35 35"><path fill="#000" d="M29.874 5.126A17.386 17.386 0 0 0 17.5 0C12.826 0 8.431 1.82 5.126 5.126A17.386 17.386 0 0 0 0 17.5c0 4.674 1.82 9.069 5.126 12.374A17.385 17.385 0 0 0 17.5 35c4.674 0 9.069-1.82 12.374-5.126A17.385 17.385 0 0 0 35 17.5c0-4.674-1.82-9.069-5.126-12.374ZM17.5 32.949c-4.571 0-8.684-1.996-11.515-5.162 1.755-4.653 6.248-7.963 11.515-7.963a6.152 6.152 0 1 1 0-12.304 6.152 6.152 0 0 1 0 12.304c5.267 0 9.76 3.31 11.515 7.963A15.41 15.41 0 0 1 17.5 32.949Z"/></svg>