<svg width="38" height="38" viewBox="0 0 38 38" fill="none" xmlns="http://www.w3.org/2000/svg">
<path d="M19.0007 19.5941C20.2141 19.5941 21.4003 19.2342 22.4093 18.5601C23.4183 17.8859 24.2047 16.9277 24.669 15.8066C25.1334 14.6855 25.2549 13.4519 25.0182 12.2617C24.7814 11.0715 24.1971 9.97832 23.339 9.12027C22.481 8.26221 21.3878 7.67787 20.1976 7.44114C19.0075 7.2044 17.7738 7.3259 16.6527 7.79028C15.5316 8.25465 14.5734 9.04104 13.8992 10.05C13.2251 11.059 12.8652 12.2452 12.8652 13.4587C12.8671 15.0853 13.5141 16.6448 14.6643 17.795C15.8145 18.9453 17.374 19.5923 19.0007 19.5941ZM19.0007 8.51074C19.9793 8.51074 20.9359 8.80094 21.7496 9.34462C22.5632 9.8883 23.1974 10.6611 23.5719 11.5652C23.9464 12.4693 24.0444 13.4642 23.8535 14.424C23.6626 15.3838 23.1913 16.2654 22.4994 16.9574C21.8074 17.6493 20.9257 18.1206 19.9659 18.3115C19.0061 18.5024 18.0113 18.4044 17.1072 18.0299C16.2031 17.6554 15.4303 17.0213 14.8866 16.2076C14.3429 15.3939 14.0527 14.4373 14.0527 13.4587C14.0542 12.1468 14.576 10.8892 15.5036 9.96158C16.4312 9.03398 17.6888 8.51221 19.0007 8.51074Z" fill="black"/>
<path d="M29.8861 30.0833C29.8833 27.6171 28.9023 25.2527 27.1585 23.5088C25.4146 21.765 23.0502 20.784 20.584 20.7813H17.4173C16.1956 20.7806 14.9857 21.0208 13.8568 21.488C12.7279 21.9553 11.7022 22.6404 10.8383 23.5044C9.97443 24.3683 9.28927 25.394 8.82202 26.5228C8.35477 27.6517 8.1146 28.8616 8.11524 30.0833V30.6771H29.8861V30.0833ZM9.32403 29.4896C9.47285 27.4452 10.3903 25.5331 11.8918 24.1378C13.3934 22.7424 15.3676 21.9675 17.4173 21.9688H20.584C22.6326 21.9712 24.6048 22.7474 26.1054 24.142C27.6061 25.5366 28.5246 27.4466 28.677 29.4896H9.32403Z" fill="black"/>
</svg>
