<svg width="35" height="35" viewBox="0 0 35 35" fill="none" xmlns="http://www.w3.org/2000/svg">
<path d="M29.8744 5.12565C26.569 1.82034 22.1744 0 17.5 0C12.8256 0 8.43097 1.82034 5.12559 5.12565C1.82034 8.43097 0 12.8256 0 17.5C0 22.1744 1.82034 26.569 5.12559 29.8743C8.43097 33.1797 12.8256 35 17.5 35C22.1744 35 26.569 33.1797 29.8744 29.8743C33.1797 26.569 35 22.1744 35 17.5C35 12.8256 33.1797 8.43097 29.8744 5.12565ZM17.5 32.9492C12.9289 32.9492 8.81583 30.953 5.98473 27.7873C7.73985 23.1343 12.2328 19.8242 17.5 19.8242C14.1021 19.8242 11.3477 17.0697 11.3477 13.6719C11.3477 10.274 14.1021 7.51953 17.5 7.51953C20.8979 7.51953 23.6523 10.274 23.6523 13.6719C23.6523 17.0697 20.8979 19.8242 17.5 19.8242C22.7672 19.8242 27.2601 23.1343 29.0153 27.7873C26.1842 30.953 22.0711 32.9492 17.5 32.9492Z" fill="black"/>
</svg>
