<svg xmlns="http://www.w3.org/2000/svg" width="20" height="20" fill="none" viewBox="0 0 20 20"><path fill="#CAC9C9" d="M12.994 2.523C12.234 1.702 11.172 1.25 10 1.25c-1.178 0-2.243.45-3 1.265-.765.824-1.137 1.945-1.05 3.155C6.123 8.058 7.94 10 10 10c2.06 0 3.873-1.942 4.05-4.329.088-1.2-.287-2.317-1.056-3.148Zm3.881 16.226H3.125a1.209 1.209 0 0 1-.946-.435 1.38 1.38 0 0 1-.28-1.137c.33-1.829 1.359-3.365 2.976-4.444C6.31 11.776 8.13 11.25 10 11.25c1.868 0 3.688.527 5.125 1.484 1.617 1.079 2.646 2.615 2.976 4.444a1.38 1.38 0 0 1-.281 1.137 1.212 1.212 0 0 1-.945.435Z"/></svg>