<svg xmlns="http://www.w3.org/2000/svg" width="34" height="35" fill="none" viewBox="0 0 34 35"><g fill="#F5F5F5" clip-path="url(#a)"><path d="M17.608 34.965c2.6-.37 4.879-3.083 6.313-7.09a30.859 30.859 0 0 0-6.313-.744v7.834Zm4.154-.638c.153-.045.306-.09.458-.139.128-.041.255-.086.381-.13.15-.051.299-.104.447-.16.126-.049.252-.1.377-.15l.432-.183A18.308 18.308 0 0 0 25.014 33a18.431 18.431 0 0 0 1.156-.676 14.387 14.387 0 0 0 .728-.494c.113-.08.226-.161.336-.243.121-.094.246-.19.368-.288.108-.086.216-.172.323-.26.121-.101.238-.206.355-.31.104-.092.207-.183.308-.277.116-.108.23-.22.342-.332.098-.096.197-.192.293-.29l.053-.058a20.426 20.426 0 0 0-4.163-1.602 15.08 15.08 0 0 1-3.884 6.306c.05-.013.099-.023.148-.036.13-.036.258-.077.385-.114ZM34 18.606h-7.286a31.51 31.51 0 0 1-1.226 8.407 21.137 21.137 0 0 1 4.611 1.835A16.977 16.977 0 0 0 34 18.606ZM17.608 17.39h7.891a30.4 30.4 0 0 0-1.196-8.107 32.002 32.002 0 0 1-6.695.799v7.309Zm0-16.358v7.834c2.124-.03 4.24-.279 6.313-.743-1.434-4.008-3.713-6.721-6.313-7.09Zm0 24.884c2.253.03 4.497.297 6.695.798a30.403 30.403 0 0 0 1.196-8.108h-7.891v7.31ZM30.1 7.148a21.134 21.134 0 0 1-4.613 1.836 31.51 31.51 0 0 1 1.227 8.406H34a16.983 16.983 0 0 0-3.9-10.242Zm-.822-.921c-.018-.018-.034-.038-.052-.057-.096-.099-.196-.194-.294-.29a13.35 13.35 0 0 0-.341-.332c-.1-.094-.205-.183-.308-.276-.118-.105-.236-.21-.357-.31-.105-.09-.213-.174-.32-.26a13.095 13.095 0 0 0-.704-.533 14.772 14.772 0 0 0-1.125-.742 16.905 16.905 0 0 0-.763-.433c-.122-.061-.243-.127-.365-.188-.14-.07-.28-.139-.425-.205a13.294 13.294 0 0 0-.37-.17c-.144-.063-.29-.12-.435-.182-.125-.05-.25-.101-.376-.15-.147-.056-.297-.108-.447-.16a14.833 14.833 0 0 0-.84-.27c-.127-.037-.254-.074-.382-.108l-.148-.037A15.079 15.079 0 0 1 25.11 7.83a20.394 20.394 0 0 0 4.168-1.603ZM0 17.39h7.286c.027-2.845.44-5.672 1.226-8.406a21.107 21.107 0 0 1-4.611-1.836A16.978 16.978 0 0 0 0 17.39Zm16.392 17.575V27.13a30.88 30.88 0 0 0-6.313.743c1.434 4.008 3.713 6.721 6.313 7.09Zm0-16.359H8.501c.03 2.745.433 5.472 1.196 8.108a31.975 31.975 0 0 1 6.695-.798v-7.31Zm0-17.574c-2.6.37-4.88 3.083-6.313 7.09a30.84 30.84 0 0 0 6.313.744V1.032Zm0 9.05a32.001 32.001 0 0 1-6.695-.799 30.386 30.386 0 0 0-1.196 8.108h7.891v-7.31ZM12.77 1.524l-.149.036c-.128.035-.255.073-.383.11-.153.045-.304.09-.457.138-.13.042-.257.086-.383.13-.15.053-.298.105-.445.161-.127.049-.252.1-.378.15l-.432.183a17.555 17.555 0 0 0-1.92.997c-.132.08-.263.162-.393.243a15.897 15.897 0 0 0-1.064.738c-.124.093-.243.19-.368.287-.108.087-.217.172-.323.262-.121.1-.237.204-.354.308-.104.092-.208.182-.31.278-.115.108-.228.22-.34.33-.098.097-.198.193-.294.292l-.053.057a20.4 20.4 0 0 0 4.163 1.603 15.073 15.073 0 0 1 3.882-6.303ZM5.068 30.117c.113.111.225.224.341.332.101.093.205.182.308.275a13.39 13.39 0 0 0 .677.57c.121.098.243.196.371.291.11.082.221.162.332.243.127.091.256.182.385.27.114.077.229.151.344.225a15.367 15.367 0 0 0 .751.454c.136.078.272.154.41.227.12.06.243.127.364.188.14.07.28.138.425.205.122.058.245.114.37.169.144.064.29.121.435.182.125.051.25.102.376.15.148.056.297.11.447.16a13.934 13.934 0 0 0 .84.27c.127.037.254.075.382.109.049.013.099.024.148.036a15.083 15.083 0 0 1-3.884-6.306c-1.442.38-2.838.918-4.163 1.603l.052.056c.091.099.19.194.289.29Zm-1.167-1.269a21.14 21.14 0 0 1 4.611-1.835 31.523 31.523 0 0 1-1.226-8.407H0a16.98 16.98 0 0 0 3.901 10.242Z"/></g><defs><clipPath id="a"><path fill="#fff" d="M0 .984h34v34H0z"/></clipPath></defs></svg>