<svg xmlns="http://www.w3.org/2000/svg" width="185" height="41" fill="none" viewBox="0 0 185 41"><path fill="#000" d="M57.928 35.713c8.785 0 14.503-5.635 14.503-14.295S66.713 7.123 57.928 7.123c-8.702 0-14.462 5.635-14.462 14.295s5.76 14.295 14.462 14.295Zm0-4.31c-6.589 0-9.738-3.065-9.738-9.985s3.15-10.027 9.738-10.027c6.588 0 9.78 3.107 9.78 10.027 0 6.92-3.192 9.986-9.78 9.986Zm22.285 3.896v-11.56c0-3.688 1.45-5.636 4.972-5.636 3.066 0 4.31 1.368 4.31 4.31v1.823h4.433v-2.694c0-3.895-2.03-7.25-6.713-7.25-4.226 0-6.464 2.651-7.085 5.966h-.29v-5.552h-4.103v20.593h4.476Zm25.601.414c4.641 0 7.666-2.237 8.536-6.34h.29V35.3h4.102V7.537h-4.475V20.3h-.248c-.829-3.48-3.605-6.008-8.495-6.008-6.257 0-9.82 4.31-9.82 10.732 0 6.34 3.604 10.69 10.11 10.69Zm-5.594-10.69c0-4.972 2.569-6.671 6.879-6.671 4.599 0 7.168 2.154 7.168 6.547v.331c0 4.31-2.693 6.381-7.086 6.381-4.433 0-6.961-1.657-6.961-6.588Zm31.238 10.69c5.304 0 8.039-3.315 8.702-6.795h.248v6.38h4.103V14.707h-4.434V24.9c0 4.475-2.113 6.795-6.672 6.795-4.35 0-6.132-1.947-6.132-5.8v-11.19h-4.434v12.389c0 4.765 2.818 8.618 8.619 8.618Zm21.594-.414V25.106c0-4.558 1.533-6.796 5.967-6.796 3.978 0 5.552 1.74 5.552 5.801V35.3h4.434V25.106c0-4.558 1.575-6.796 5.967-6.796 3.978 0 5.594 1.74 5.594 5.801V35.3H185V22.91c0-4.971-2.694-8.618-8.039-8.618-5.221 0-7.542 3.274-8.08 6.796h-.249c-.58-3.937-3.108-6.796-7.79-6.796-5.138 0-7.376 3.19-7.915 6.63h-.248v-6.215h-4.103V35.3h4.476Z"/><g fill="#000" clip-path="url(#a)"><path d="M27.496 9.687a.055.055 0 0 1 0-.073.056.056 0 0 1 .073 0c2.526 2.515 3.587 6.015 3.267 9.633-.32 3.617-2.031 7.354-5.042 10.352-2.297 2.288-5.014 3.819-7.777 4.557-2.846.765-5.756.692-8.29-.246-.028-.01-.037-.037-.028-.064.01-.027.037-.036.064-.027 2.516.93 5.399 1.002 8.235.236 2.754-.738 5.454-2.26 7.732-4.529 3.001-2.989 4.694-6.698 5.014-10.298.311-3.581-.74-7.044-3.248-9.541ZM5.792 31.303c.018.019.018.055 0 .073a.056.056 0 0 1-.073 0c-2.526-2.515-3.587-6.014-3.267-9.632.32-3.618 2.031-7.355 5.05-10.362 2.298-2.287 5.015-3.818 7.779-4.557 2.845-.765 5.755-.692 8.29.246.027.01.036.037.027.064-.01.028-.037.037-.064.028-2.516-.93-5.399-1.003-8.235-.237-2.754.738-5.454 2.26-7.732 4.529-3.001 2.989-4.694 6.698-5.014 10.298-.32 3.59.732 7.053 3.239 9.55Zm20.991-20.969a.056.056 0 0 1 .073 0 .055.055 0 0 1 0 .073L18.227 19c-.018-.028-.045-.046-.073-.073l8.629-8.594Zm-11.64 11.729-8.628 8.593a.056.056 0 0 1-.073 0 .055.055 0 0 1 0-.072l8.629-8.594.073.073Z"/><path d="M18.886 1.102a.055.055 0 0 1 0-.073.056.056 0 0 1 .073 0l8.61 8.576a.055.055 0 0 1 0 .073.056.056 0 0 1-.073 0l-8.61-8.576ZM5.719 31.377a.055.055 0 0 1 0-.073.056.056 0 0 1 .073 0l8.61 8.575a.055.055 0 0 1 0 .073.056.056 0 0 1-.073 0l-8.61-8.575Zm.723-.721a.055.055 0 0 1 0-.073.056.056 0 0 1 .073 0l9.498 9.469a.055.055 0 0 1 0 .072.056.056 0 0 1-.073 0l-9.498-9.468Z"/><path fill-rule="evenodd" d="M16.754 14.472c1.583 0 3.029.601 4.108 1.595l-1.665 1.658a3.723 3.723 0 0 0-2.443-.911 3.71 3.71 0 0 0-3.715 3.7 3.71 3.71 0 0 0 3.715 3.7 3.71 3.71 0 0 0 3.715-3.7 3.67 3.67 0 0 0-1.153-2.68l1.656-1.649c.128.128.247.255.366.383.137.155.265.319.384.492 1.2 1.704 2.764 2.798 4.777 3.335l.43.119-.43.118c-2.013.538-3.587 1.631-4.776 3.336a6.058 6.058 0 0 1-4.978 2.588 6.058 6.058 0 0 1-4.978-2.588C10.577 22.254 9.013 21.16 7 20.623l-.43-.118.43-.119c2.013-.537 3.587-1.631 4.776-3.335a6.067 6.067 0 0 1 4.978-2.579Z" clip-rule="evenodd"/><path d="m27.57 9.614 1.994 1.987c1.235 1.23 2.16 2.588 2.782 4.073.622 1.486.942 3.099.942 4.821 0 5.423-1.866 10.344-4.877 13.898-3.01 3.563-7.174 5.76-11.776 5.76h-.339c-.11 0-.22-.01-.33-.01-.008 0-.027 0-.036-.018L9.7 33.91a.057.057 0 0 1-.01-.055c.01-.027.037-.036.065-.027 2.516.93 5.399 1.002 8.235.237 2.754-.738 5.453-2.26 7.732-4.53 3.001-2.988 4.694-6.698 5.014-10.297.32-3.59-.732-7.063-3.239-9.55l.073-.074Zm.97 1.112c1.82 2.388 2.57 5.413 2.296 8.52-.32 3.619-2.031 7.355-5.042 10.354-2.297 2.287-5.014 3.818-7.777 4.556-2.773.747-5.591.702-8.08-.164l6.066 6.042c.11.01.21.01.311.01h.33c4.566 0 8.702-2.188 11.694-5.724 2.992-3.536 4.85-8.43 4.85-13.834-.01-1.713-.32-3.308-.934-4.784-.613-1.476-1.537-2.825-2.763-4.037l-.952-.939Zm-4.237-2.788.046.045c.658.656.988 1.513.988 2.379 0 .856-.32 1.713-.97 2.369l-.01.01a.055.055 0 0 0 0 .072c.019.018.056.018.074 0l2.416-2.406c.018-.018.018-.055 0-.073L24.422 7.92 17.349.866c-.11-.01-.22-.01-.33-.01h-.338C12.05.839 7.887 3.045 4.877 6.599 1.857 10.152 0 15.073 0 20.496c.01 1.731.32 3.335.942 4.82.623 1.486 1.547 2.844 2.782 4.074l1.995 1.987.036-.037.037-.036c-2.507-2.497-3.56-5.96-3.24-9.55.321-3.591 2.023-7.31 5.015-10.299 2.279-2.269 4.987-3.79 7.732-4.53a14.611 14.611 0 0 1 4.575-.5c1.601.082 3.276.355 4.429 1.513Z"/><path fill-rule="evenodd" d="M8.903 28.205a3.409 3.409 0 0 0-.009 4.821L6.48 30.62l2.424-2.415Z" clip-rule="evenodd"/><path d="M8.94 28.241a3.339 3.339 0 0 0-.988 2.38c0 .856.32 1.712.97 2.369l.009.009a.055.055 0 0 1 0 .072.056.056 0 0 1-.073 0l-2.416-2.405c-.018-.019-.018-.055 0-.073l2.425-2.415.073.063Zm-1.089 2.38c0-.62.165-1.25.503-1.796L6.552 30.62l1.811 1.805a3.376 3.376 0 0 1-.512-1.805Zm8.793-12.341c.559 0 1.071.21 1.464.547l-.073.073a2.12 2.12 0 0 0-3.514 1.595 2.12 2.12 0 0 0 2.123 2.114 2.12 2.12 0 0 0 2.123-2.114 2.103 2.103 0 0 0-.659-1.531l.074-.073.036.036c.403.401.65.957.65 1.568 0 .61-.247 1.166-.65 1.567-.402.401-.96.647-1.574.647a2.224 2.224 0 0 1-1.573-.647c-.403-.4-.65-.957-.65-1.567s.247-1.167.65-1.568c.402-.4.96-.647 1.573-.647Z"/><path fill-rule="evenodd" d="M16.653 18.827c.403 0 .769.146 1.062.374l-.796.793a.52.52 0 0 0-.266-.064.553.553 0 0 0-.558.556c0 .31.247.556.558.556a.553.553 0 0 0 .558-.556.564.564 0 0 0-.2-.429l.786-.783c.32.3.53.738.53 1.212 0 .92-.75 1.658-1.665 1.658a1.662 1.662 0 0 1-1.665-1.658c0-.912.732-1.659 1.656-1.659Z" clip-rule="evenodd"/><path d="M16.644 19.93c.1 0 .192.027.275.073l-.073.073a.472.472 0 0 0-.53.091.468.468 0 0 0-.138.328.468.468 0 0 0 .796.328.468.468 0 0 0 .137-.328.468.468 0 0 0-.137-.328c-.01-.01-.028-.019-.037-.037l.073-.073c.01.01.028.019.037.037a.55.55 0 0 1 0 .784.554.554 0 0 1-.787 0 .55.55 0 0 1 0-.784.518.518 0 0 1 .384-.164Z"/><path d="M19.325 17.752a.056.056 0 0 1 .073 0c.019.018.019.055 0 .073l-2.717 2.707a.056.056 0 0 1-.073 0c-.019-.019-.019-.055 0-.073l2.717-2.707Z"/><path fill-rule="evenodd" d="M16.644 20.377a.12.12 0 0 1 .12.118.12.12 0 0 1-.12.119.12.12 0 0 1-.119-.119.12.12 0 0 1 .12-.118Z" clip-rule="evenodd"/><path d="M16.644 20.331c.046 0 .092.018.12.046a.173.173 0 0 1 .045.118.173.173 0 0 1-.046.119.174.174 0 0 1-.119.045.175.175 0 0 1-.119-.045.173.173 0 0 1-.045-.119c0-.046.018-.091.045-.118a.175.175 0 0 1 .12-.046Zm.046.119a.07.07 0 0 0-.046-.019.07.07 0 0 0-.046.018.07.07 0 0 0-.018.046c0 .018.01.037.018.046a.07.07 0 0 0 .046.018.07.07 0 0 0 .046-.018.07.07 0 0 0 .018-.046c.01-.018 0-.036-.018-.046Z"/><path d="m9.022 33.07-.046-.045a3.339 3.339 0 0 1-.988-2.378c0-.857.32-1.713.97-2.37l.009-.009a.055.055 0 0 0 0-.073.056.056 0 0 0-.073 0l-2.416 2.406c-.018.018-.018.055 0 .073l2.425 2.415 7.073 7.045c.11.009.22.009.33.009h.338c4.593 0 8.757-2.206 11.776-5.76 3.01-3.554 4.877-8.466 4.877-13.897-.009-1.732-.32-3.336-.942-4.821-.622-1.486-1.547-2.844-2.782-4.074l-1.995-1.987-.036.037-.037.036c2.507 2.497 3.56 5.96 3.24 9.551-.32 3.59-2.023 7.309-5.015 10.298-2.278 2.27-4.987 3.791-7.732 4.53-1.528.41-3.074.582-4.575.5-1.574-.063-3.248-.337-4.401-1.485Z"/></g><defs><clipPath id="a"><path fill="#fff" d="M0 .838h33.325V40.16H0z"/></clipPath></defs></svg>