<svg xmlns="http://www.w3.org/2000/svg" width="16" height="16" fill="currentColor" class="insert-table" viewBox="0 0 24 24"><path fill="#000" d="M23.322 1.524a2.222 2.222 0 0 0-1.63-.678H2.308c-.635 0-1.178.226-1.63.678A2.223 2.223 0 0 0 0 3.154v15.692c0 .635.226 1.177.678 1.63.452.452.995.677 1.63.677h19.384c.635 0 1.178-.225 1.63-.677.452-.453.678-.996.678-1.63V3.154a2.22 2.22 0 0 0-.678-1.63ZM7.385 18.845a.45.45 0 0 1-.13.332.45.45 0 0 1-.332.13H2.308a.45.45 0 0 1-.332-.13.45.45 0 0 1-.13-.332v-2.769c0-.135.043-.245.13-.331a.449.449 0 0 1 .332-.13h4.615a.447.447 0 0 1 .462.461v2.77Zm0-5.538a.449.449 0 0 1-.13.332.449.449 0 0 1-.332.13H2.308a.45.45 0 0 1-.332-.13.449.449 0 0 1-.13-.332v-2.77a.45.45 0 0 1 .13-.33.45.45 0 0 1 .332-.13h4.615a.45.45 0 0 1 .332.13.45.45 0 0 1 .13.33v2.77Zm0-5.538a.45.45 0 0 1-.13.332.45.45 0 0 1-.332.13H2.308a.45.45 0 0 1-.332-.13.45.45 0 0 1-.13-.332v-2.77c0-.134.043-.245.13-.331a.45.45 0 0 1 .332-.13h4.615c.135 0 .245.043.332.13a.45.45 0 0 1 .13.332v2.769Zm7.385 11.076a.45.45 0 0 1-.13.332.45.45 0 0 1-.332.13H9.692a.45.45 0 0 1-.331-.13.45.45 0 0 1-.13-.332v-2.769c0-.135.043-.245.13-.331a.449.449 0 0 1 .331-.13h4.616c.135 0 .245.043.332.13a.45.45 0 0 1 .13.331v2.77Zm0-5.538a.45.45 0 0 1-.13.332.449.449 0 0 1-.332.13H9.692a.45.45 0 0 1-.331-.13.449.449 0 0 1-.13-.332v-2.77a.45.45 0 0 1 .13-.33.45.45 0 0 1 .331-.13h4.616a.45.45 0 0 1 .332.13.45.45 0 0 1 .13.33v2.77Zm0-5.538a.45.45 0 0 1-.13.332.45.45 0 0 1-.332.13H9.692a.45.45 0 0 1-.331-.13.45.45 0 0 1-.13-.332v-2.77c0-.134.043-.245.13-.331a.45.45 0 0 1 .331-.13h4.616a.45.45 0 0 1 .332.13.45.45 0 0 1 .13.332v2.769Zm7.384 11.076a.45.45 0 0 1-.13.332.45.45 0 0 1-.332.13h-4.614a.449.449 0 0 1-.332-.13.45.45 0 0 1-.13-.332v-2.769a.447.447 0 0 1 .461-.461h4.616a.45.45 0 0 1 .331.13c.087.086.13.196.13.331v2.77Zm0-5.538a.45.45 0 0 1-.13.332.45.45 0 0 1-.332.13h-4.614a.448.448 0 0 1-.332-.13.449.449 0 0 1-.13-.332v-2.77a.45.45 0 0 1 .13-.33.449.449 0 0 1 .332-.13h4.614a.45.45 0 0 1 .332.13.45.45 0 0 1 .13.33v2.77Zm0-5.538a.45.45 0 0 1-.13.332.451.451 0 0 1-.332.13h-4.614a.45.45 0 0 1-.332-.13.45.45 0 0 1-.13-.332v-2.77c0-.134.043-.245.13-.331a.448.448 0 0 1 .332-.13h4.614a.45.45 0 0 1 .332.13.45.45 0 0 1 .13.332v2.769Z"/></svg>